<svg width="60" height="60" viewBox="0 0 60 60" fill="none" xmlns="http://www.w3.org/2000/svg">
<path d="M29.2114 46.3007H30.666C31.7015 46.3007 32.6766 45.8175 33.3028 44.9928L42.5296 32.8543L51.7564 44.9928C52.3826 45.8163 53.3577 46.3007 54.3932 46.3007H55.8478L44.0767 30.8179L55.3202 16.0254H53.8656C52.8301 16.0254 51.855 16.5086 51.2288 17.3333L42.5284 28.7802L33.8267 17.3321C33.2005 16.5086 32.2254 16.0254 31.1899 16.0254H29.7353L40.9789 30.8179L29.2114 46.3007Z" fill="#888888"/>
<path d="M29.5849 32.0505V28.3524C29.5849 20.124 22.2565 13.6079 13.7705 14.975C7.16442 16.0388 2.46533 22.0125 2.46533 28.7025V29.5851V32.0505V32.2255C2.46533 40.3035 8.35398 46.7542 15.8624 46.843C22.1394 46.917 27.4363 42.7208 29.061 36.9826H27.7938C27.0295 36.9826 26.3367 37.4202 26.0051 38.108C23.8615 42.5396 18.869 45.3342 13.397 44.0768C8.35275 42.9168 4.93075 38.1906 4.93075 33.0157V32.0505H29.5849ZM4.93075 29.2276C4.93075 23.424 8.38726 18.6793 13.466 17.544C20.7069 15.9267 27.1195 21.39 27.1195 28.3524V29.5851H4.93075V29.2276Z" fill="#888888"/>
</svg>
