<svg width="60" height="60" viewBox="0 0 60 60" fill="none" xmlns="http://www.w3.org/2000/svg">
<g clip-path="url(#clip0_404_48)">
<path d="M36.2786 21.3713L30.356 26.8815L24.8606 15.7964L27.7045 9.42078C28.4441 8.12644 29.5979 8.14123 30.319 9.42078L36.2786 21.3713Z" fill="#FFA000"/>
<path d="M24.8608 15.7964L30.3562 26.8815L8.2229 47.4708L24.8608 15.7964Z" fill="#F57F17"/>
<path d="M42.756 12.9491C43.8137 11.9321 44.9083 12.2797 45.1875 13.7201L50.9492 47.1974L31.8521 58.6616C31.1864 59.0314 29.4113 59.1904 29.4113 59.1904C29.4113 59.1904 27.7952 58.9981 27.1795 58.6357L8.2229 47.4711L42.756 12.9491Z" fill="#FFCA28"/>
<path d="M24.8606 15.7965L8.22461 47.471L15.6338 1.1797C15.9075 -0.262567 16.7284 -0.401247 17.4607 0.870908L24.8606 15.7965Z" fill="#FFA000"/>
</g>
<defs>
<clipPath id="clip0_404_48">
<rect width="59.17" height="59.17" fill="white"/>
</clipPath>
</defs>
</svg>
