<svg width="60" height="60" viewBox="0 0 60 60" fill="none" xmlns="http://www.w3.org/2000/svg">
<g clip-path="url(#clip0_403_41)">
<path d="M29.4 0.160645L30.9791 3.12654C31.3342 3.67386 31.7188 4.15832 32.1718 4.60949C33.4939 5.93157 34.7494 7.31652 35.8773 8.79946C38.5529 12.3127 40.3576 16.2142 41.6464 20.4338C42.4193 23.0114 42.839 25.6555 42.8705 28.3293C42.9999 36.3228 40.2596 43.1865 34.7346 48.8908C33.8323 49.7932 32.867 50.629 31.8316 51.3723C31.2842 51.3723 31.0254 50.9525 30.7998 50.5661C30.3801 49.8579 30.123 49.0499 29.9936 48.2455C29.7994 47.2785 29.6719 46.3114 29.7347 45.3129V44.8617C29.6903 44.7656 29.2077 0.388079 29.4 0.160645Z" fill="#599636"/>
<path d="M29.4001 0.0626368C29.3354 -0.0667976 29.2707 0.0312027 29.206 0.0940708C29.2374 0.741243 29.0118 1.31815 28.6586 1.86917C28.2703 2.41649 27.7563 2.83623 27.2404 3.2874C24.3744 5.76884 22.1185 8.76617 20.312 12.1185C17.9082 16.6302 16.6693 21.4655 16.318 26.556C16.1571 28.3921 16.8986 34.8712 17.4773 36.7406C19.0564 41.7035 21.8929 45.8621 25.567 49.4714C26.4693 50.3405 27.4345 51.1467 28.433 51.9214C28.7233 51.9214 28.7548 51.6626 28.8213 51.4703C28.9486 51.0588 29.0456 50.6385 29.1116 50.2129L29.7588 45.3795L29.4001 0.0626368Z" fill="#6CAC48"/>
<path d="M30.9793 53.3363C31.044 52.5967 31.399 51.9828 31.7855 51.3707C31.3972 51.2099 31.1087 50.89 30.8831 50.5331C30.689 50.2114 30.5281 49.8249 30.4024 49.4699C29.9512 48.1164 29.855 46.6963 29.7256 45.3132V44.4756C29.5647 44.605 29.5314 45.6997 29.5314 45.8624C29.4374 47.3242 29.2434 48.7779 28.9508 50.2132C28.8547 50.7938 28.79 51.3726 28.4331 51.8885C28.4331 51.9532 28.4331 52.0179 28.4645 52.1141C29.0451 53.8226 29.2042 55.5626 29.3022 57.3358V57.983C29.3022 58.7559 29.2707 58.5932 29.9124 58.852C30.1712 58.9482 30.4597 58.9815 30.7185 59.1738C30.9127 59.1738 30.9441 59.0129 30.9441 58.8835L30.848 57.8203V54.8544C30.8165 54.3366 30.9127 53.8226 30.9774 53.3381L30.9793 53.3363Z" fill="#C2BFBF"/>
</g>
<defs>
<clipPath id="clip0_403_41">
<rect width="59.17" height="59.17" fill="white"/>
</clipPath>
</defs>
</svg>
