<svg width="60" height="37" viewBox="0 0 60 37" fill="none" xmlns="http://www.w3.org/2000/svg">
<path d="M29.2511 36.1833C29.0507 36.1833 28.8637 36.1298 28.6901 36.0363L26.9137 34.9812C26.6465 34.8342 26.7801 34.7808 26.8602 34.7541C27.2209 34.6339 27.2876 34.6072 27.6616 34.3935C27.7017 34.3667 27.7551 34.3801 27.7952 34.4068L29.1576 35.2216C29.211 35.2483 29.2778 35.2483 29.3179 35.2216L34.6472 32.1362C34.7006 32.1095 34.7273 32.056 34.7273 31.9893V25.8318C34.7273 25.7651 34.7006 25.7116 34.6472 25.6849L29.3179 22.6129C29.2644 22.5862 29.1976 22.5862 29.1576 22.6129L23.8283 25.6849C23.7748 25.7116 23.7481 25.7784 23.7481 25.8318V31.9893C23.7481 32.0427 23.7748 32.1095 23.8283 32.1362L25.2841 32.9777C26.0722 33.3784 26.5664 32.9109 26.5664 32.4434V26.3661C26.5664 26.286 26.6332 26.2058 26.7267 26.2058H27.4079C27.488 26.2058 27.5681 26.2726 27.5681 26.3661V32.4434C27.5681 33.4986 26.9938 34.113 25.992 34.113C25.6848 34.113 25.4444 34.113 24.7632 33.7791L23.3608 32.9777C23.0135 32.7773 22.7998 32.4033 22.7998 32.0026V25.8452C22.7998 25.4445 23.0135 25.0705 23.3608 24.8702L28.6901 21.7848C29.024 21.5978 29.4781 21.5978 29.8121 21.7848L35.1414 24.8702C35.4886 25.0705 35.7023 25.4445 35.7023 25.8452V32.0026C35.7023 32.4033 35.4886 32.7773 35.1414 32.9777L29.8121 36.063C29.6384 36.1432 29.4381 36.1833 29.2511 36.1833ZM30.8939 31.9492C28.5565 31.9492 28.0757 30.8807 28.0757 29.9724C28.0757 29.8923 28.1425 29.8121 28.236 29.8121H28.9305C29.0107 29.8121 29.0774 29.8656 29.0774 29.9457C29.1843 30.6536 29.4915 31.0009 30.9073 31.0009C32.0293 31.0009 32.5101 30.7471 32.5101 30.146C32.5101 29.7988 32.3765 29.545 30.6268 29.3714C29.1709 29.2244 28.2627 28.9039 28.2627 27.7418C28.2627 26.66 29.1709 26.0188 30.6936 26.0188C32.4032 26.0188 33.2447 26.6065 33.3516 27.8888C33.3516 27.9288 33.3382 27.9689 33.3115 28.009C33.2848 28.0357 33.2447 28.0624 33.2046 28.0624H32.5101C32.4433 28.0624 32.3765 28.009 32.3632 27.9422C32.2029 27.2076 31.7888 26.9672 30.6936 26.9672C29.4648 26.9672 29.3179 27.3946 29.3179 27.7151C29.3179 28.1025 29.4915 28.2227 31.1477 28.4364C32.7906 28.6501 33.5653 28.9573 33.5653 30.106C33.5519 31.2814 32.5902 31.9492 30.8939 31.9492Z" fill="#45C87F"/>
<path d="M12.7154 12.1013C12.7154 11.8609 12.5819 11.6339 12.3682 11.5137L6.70494 8.25463C6.61144 8.2012 6.50459 8.17449 6.39774 8.16113H6.34431C6.23746 8.16113 6.1306 8.2012 6.03711 8.25463L0.373884 11.5137C0.160178 11.6339 0.0266113 11.8609 0.0266113 12.1013L0.039968 20.8633C0.039968 20.9835 0.106751 21.1037 0.213605 21.1572C0.320458 21.2239 0.454024 21.2239 0.547521 21.1572L3.9134 19.2338C4.12711 19.1136 4.26067 18.8865 4.26067 18.6461V14.5456C4.26067 14.3052 4.39424 14.0781 4.60794 13.9579L6.03711 13.1298C6.14396 13.063 6.26417 13.0363 6.38438 13.0363C6.50459 13.0363 6.6248 13.063 6.7183 13.1298L8.14746 13.9579C8.36117 14.0781 8.49473 14.3052 8.49473 14.5456V18.6461C8.49473 18.8865 8.6283 19.1136 8.84201 19.2338L12.2079 21.1572C12.3147 21.2239 12.4483 21.2239 12.5552 21.1572C12.662 21.1037 12.7288 20.9835 12.7288 20.8633L12.7154 12.1013Z" fill="#B3B3B3" />
<path d="M39.9364 0.04007C39.8295 -0.0133567 39.6959 -0.0133567 39.6024 0.04007C39.4956 0.106853 39.4288 0.213707 39.4288 0.333917V9.01575C39.4288 9.09589 39.3887 9.17603 39.3086 9.22945C39.2285 9.26952 39.1483 9.26952 39.0682 9.22945L37.6524 8.4147C37.4387 8.29449 37.1849 8.29449 36.9712 8.4147L31.308 11.6871C31.0943 11.8073 30.9607 12.0344 30.9607 12.2748V18.8062C30.9607 19.0466 31.0943 19.2737 31.308 19.3939L36.9712 22.6663C37.1849 22.7865 37.4387 22.7865 37.6524 22.6663L43.3156 19.3939C43.5293 19.2737 43.6629 19.0466 43.6629 18.8062V2.52441C43.6629 2.27063 43.5293 2.04357 43.3156 1.92336L39.9364 0.04007ZM39.4155 16.6558C39.4155 16.7225 39.3887 16.776 39.3353 16.8027L37.3986 17.9246C37.3452 17.9514 37.2784 17.9514 37.225 17.9246L35.2883 16.8027C35.2348 16.776 35.2081 16.7092 35.2081 16.6558V14.4118C35.2081 14.3451 35.2348 14.2916 35.2883 14.2649L37.225 13.143C37.2784 13.1162 37.3452 13.1162 37.3986 13.143L39.3353 14.2649C39.3887 14.2916 39.4155 14.3584 39.4155 14.4118V16.6558Z" fill="#B3B3B3" />
<path d="M58.7826 14.3586C58.9963 14.2384 59.1165 14.0114 59.1165 13.7709V12.1815C59.1165 11.9411 58.983 11.714 58.7826 11.5938L53.1595 8.33479C52.9458 8.21458 52.692 8.21458 52.4783 8.33479L46.815 11.6072C46.6013 11.7274 46.4678 11.9544 46.4678 12.1949V18.7263C46.4678 18.9667 46.6013 19.1938 46.815 19.314L52.4382 22.5196C52.6519 22.6398 52.9057 22.6398 53.106 22.5196L56.512 20.6229C56.6188 20.5695 56.6856 20.4493 56.6856 20.3291C56.6856 20.2089 56.6188 20.0886 56.512 20.0352L50.822 16.7628C50.7152 16.6961 50.6484 16.5892 50.6484 16.469V14.4254C50.6484 14.3052 50.7152 14.185 50.822 14.1316L52.5985 13.1165C52.7053 13.0497 52.8389 13.0497 52.9458 13.1165L54.7222 14.1316C54.829 14.1984 54.8958 14.3052 54.8958 14.4254V16.0282C54.8958 16.1484 54.9626 16.2686 55.0695 16.3221C55.1763 16.3889 55.3099 16.3889 55.4167 16.3221L58.7826 14.3586Z" fill="#B3B3B3" />
<path d="M52.7319 14.0513C52.772 14.0246 52.8254 14.0246 52.8655 14.0513L53.9474 14.679C53.9875 14.7058 54.0142 14.7458 54.0142 14.7993V16.0548C54.0142 16.1082 53.9875 16.1483 53.9474 16.175L52.8655 16.8028C52.8254 16.8295 52.772 16.8295 52.7319 16.8028L51.65 16.175C51.61 16.1483 51.5833 16.1082 51.5833 16.0548V14.7993C51.5833 14.7458 51.61 14.7058 51.65 14.679L52.7319 14.0513Z" fill="#45C87F"/>
<path d="M22.1854 8.36115C21.9717 8.24094 21.7179 8.24094 21.5042 8.36115L15.881 11.6068C15.6673 11.727 15.5471 11.9541 15.5471 12.1945V18.6992C15.5471 18.9396 15.6807 19.1667 15.881 19.2869L21.5042 22.5326C21.7179 22.6528 21.9717 22.6528 22.1854 22.5326L27.8085 19.2869C28.0222 19.1667 28.1424 18.9396 28.1424 18.6992V12.1945C28.1424 11.9541 28.0089 11.727 27.8085 11.6068L22.1854 8.36115Z" fill="url(#paint0_linear_401_12)"/>
<defs>
<linearGradient id="paint0_linear_401_12" x1="874.403" y1="259.237" x2="258.028" y2="1227.71" gradientUnits="userSpaceOnUse">
<stop stop-color="#41873F"/>
<stop offset="0.3288" stop-color="#418B3D"/>
<stop offset="0.6352" stop-color="#419637"/>
<stop offset="0.9319" stop-color="#3FA92D"/>
<stop offset="1" stop-color="#3FAE2A"/>
</linearGradient>
</defs>
</svg>
