<svg width="51" height="72" viewBox="0 0 51 72" fill="none" xmlns="http://www.w3.org/2000/svg">
<path fill-rule="evenodd" clip-rule="evenodd" d="M35.9079 1.80008C36.4944 2.52846 36.7938 3.51117 37.3922 5.47696L50.4646 48.4198C45.5543 45.8716 40.2841 44.0874 34.8358 43.1286L26.3243 14.366C26.2565 14.1366 26.1162 13.9353 25.9244 13.7923C25.7326 13.6492 25.4997 13.5721 25.2604 13.5724C25.0212 13.5728 24.7885 13.6505 24.5971 13.7941C24.4057 13.9377 24.266 14.1394 24.1988 14.369L15.7905 43.1141C10.3175 44.0684 5.02308 45.8555 0.0913086 48.4131L13.2277 5.46728C13.828 3.50484 14.1281 2.52399 14.715 1.79673C15.2329 1.15483 15.9066 0.656267 16.6719 0.348547C17.5388 0 18.5651 0 20.6172 0H29.9997C32.0545 0 33.0819 0 33.9495 0.349292C34.7152 0.658195 35.3893 1.15758 35.9079 1.80008Z" fill="#594EE4" />
<path fill-rule="evenodd" clip-rule="evenodd" d="M37.4723 50.4631C35.3173 52.306 31.016 53.5627 26.0615 53.5627C19.9805 53.5627 14.8838 51.6696 13.5309 49.1232C13.0476 50.583 12.9392 52.2527 12.9392 53.3196C12.9392 53.3196 12.6204 58.5582 16.2642 62.2016C16.2642 61.7517 16.3529 61.3063 16.5251 60.8907C16.6973 60.4751 16.9496 60.0975 17.2677 59.7795C17.5859 59.4614 17.9635 59.2091 18.3791 59.037C18.7948 58.8649 19.2402 58.7764 19.6901 58.7764C22.9324 58.7764 22.9286 61.605 22.926 63.9004L22.9257 64.1052C22.9257 67.5888 25.0549 70.5753 28.0831 71.8347C27.6171 70.8753 27.3756 69.8224 27.3771 68.7558C27.3771 65.4331 29.3276 64.1957 31.5947 62.7575C33.3988 61.6136 35.403 60.3427 36.7841 57.793C37.528 56.4194 37.9164 54.8816 37.9139 53.3196C37.9149 52.3504 37.7659 51.3866 37.4723 50.4631Z" fill="#FF5D01"/>
<path fill-rule="evenodd" clip-rule="evenodd" d="M37.4723 50.4631C35.3173 52.306 31.016 53.5627 26.0615 53.5627C19.9805 53.5627 14.8838 51.6696 13.5309 49.1232C13.0476 50.583 12.9392 52.2527 12.9392 53.3196C12.9392 53.3196 12.6204 58.5582 16.2642 62.2016C16.2642 61.7517 16.3529 61.3063 16.5251 60.8907C16.6973 60.4751 16.9496 60.0975 17.2677 59.7795C17.5859 59.4614 17.9635 59.2091 18.3791 59.037C18.7948 58.8649 19.2402 58.7764 19.6901 58.7764C22.9324 58.7764 22.9286 61.605 22.926 63.9004L22.9257 64.1052C22.9257 67.5888 25.0549 70.5753 28.0831 71.8347C27.6171 70.8753 27.3756 69.8224 27.3771 68.7558C27.3771 65.4331 29.3276 64.1957 31.5947 62.7575C33.3988 61.6136 35.403 60.3427 36.7841 57.793C37.528 56.4194 37.9164 54.8816 37.9139 53.3196C37.9149 52.3504 37.7659 51.3866 37.4723 50.4631Z" fill="url(#paint0_linear_61_11)"/>
<defs>
<linearGradient id="paint0_linear_61_11" x1="3437.27" y1="-881.954" x2="2341.59" y2="1411.72" gradientUnits="userSpaceOnUse">
<stop stop-color="#FF1639"/>
<stop offset="1" stop-color="#FF1639" stop-opacity="0"/>
</linearGradient>
</defs>
</svg>
