<svg width="57" height="46" viewBox="0 0 57 46" fill="none" xmlns="http://www.w3.org/2000/svg">
<g clip-path="url(#clip0_61_95)">
<path fill-rule="evenodd" clip-rule="evenodd" d="M12.1235 0.697632C8.89158 0.697632 6.50015 3.52638 6.60724 6.59408C6.71001 9.5413 6.57648 13.3584 5.61557 16.4712C4.65123 19.5928 3.02147 21.5709 0.358887 21.8248V24.6914C3.02147 24.9458 4.65123 26.923 5.61546 30.045C6.57648 33.1578 6.7099 36.9749 6.60713 39.9221C6.50004 42.9894 8.89147 45.8186 12.1239 45.8186H45.2399C48.4718 45.8186 50.8628 42.9898 50.7557 39.9221C50.6529 36.9749 50.7864 33.1578 51.7473 30.045C52.7117 26.923 54.3375 24.9451 57.0002 24.6914V21.8248C54.3376 21.5704 52.7118 19.5932 51.7473 16.4712C50.7863 13.3588 50.6529 9.5413 50.7557 6.59408C50.8628 3.52682 48.4718 0.697632 45.2399 0.697632H12.123H12.1235ZM38.7598 28.4725C38.7598 32.6966 35.609 35.2584 30.3802 35.2584H21.4793C21.2247 35.2584 20.9805 35.1573 20.8005 34.9772C20.6205 34.7972 20.5193 34.553 20.5193 34.2984V12.2179C20.5193 11.9633 20.6205 11.7191 20.8005 11.5391C20.9805 11.3591 21.2247 11.2579 21.4793 11.2579H30.3295C34.6895 11.2579 37.5508 13.6196 37.5508 17.2455C37.5508 19.7905 35.6259 22.0689 33.1736 22.468V22.6008C36.5119 22.9669 38.7598 25.2791 38.7598 28.4725ZM29.4097 14.3012H24.3345V21.4698H28.6091C31.9135 21.4698 33.7355 20.1392 33.7355 17.7608C33.7352 15.5319 32.1687 14.3012 29.4097 14.3012ZM24.3345 24.3142V32.2142H29.5964C33.0369 32.2142 34.8593 30.8337 34.8593 28.2392C34.8593 25.6448 32.9858 24.3137 29.3751 24.3137H24.3345V24.3142Z" fill="#7952B3"/>
</g>
<defs>
<clipPath id="clip0_61_95">
<rect width="56.6413" height="45.1318" fill="white" transform="translate(0.358887 0.692139)"/>
</clipPath>
</defs>
</svg>
