<svg width="51" height="51" viewBox="0 0 51 51" fill="none" xmlns="http://www.w3.org/2000/svg">
<g clip-path="url(#clip0_61_111)">
<path d="M25.4014 0.864014C11.3744 0.864014 0 12.2364 0 26.2654C0 37.4886 7.27826 47.0101 17.3711 50.3689C18.6405 50.604 19.1067 49.8178 19.1067 49.1469C19.1067 48.5412 19.083 46.5401 19.0722 44.4176C12.0053 45.9542 10.5142 41.4206 10.5142 41.4206C9.3587 38.4845 7.69383 37.7039 7.69383 37.7039C5.38927 36.1273 7.86755 36.1596 7.86755 36.1596C10.4183 36.3389 11.7615 38.7773 11.7615 38.7773C14.027 42.6607 17.7038 41.5379 19.1533 40.8891C19.3812 39.2471 20.0396 38.1267 20.766 37.4924C15.1241 36.8499 9.19295 34.6718 9.19295 24.9388C9.19295 22.1657 10.1853 19.8996 11.8103 18.1207C11.5465 17.4809 10.6771 14.8974 12.0563 11.3985C12.0563 11.3985 14.1894 10.7158 19.0435 14.0023C21.0696 13.4393 23.2427 13.1572 25.4014 13.1476C27.5601 13.1572 29.7348 13.4393 31.7648 14.0023C36.6132 10.7158 38.7433 11.3985 38.7433 11.3985C40.1258 14.8974 39.2561 17.4809 38.9923 18.1207C40.6209 19.8996 41.6064 22.1655 41.6064 24.9388C41.6064 34.6949 35.6641 36.8433 30.0079 37.4721C30.919 38.2604 31.7308 39.8063 31.7308 42.176C31.7308 45.5747 31.7013 48.3102 31.7013 49.1469C31.7013 49.8228 32.1585 50.6149 33.4462 50.3655C43.5335 47.0029 50.8026 37.4848 50.8026 26.2654C50.8026 12.2364 39.4298 0.864014 25.4014 0.864014Z" fill="#24BCCF"/>
<path d="M9.51384 37.0489C9.45806 37.175 9.25924 37.2129 9.07855 37.1264C8.89427 37.0435 8.79067 36.8714 8.85044 36.7447C8.90523 36.6148 9.10405 36.5785 9.28792 36.6658C9.4726 36.7485 9.57779 36.9222 9.51384 37.0489ZM10.7633 38.1637C10.6422 38.2761 10.4053 38.2239 10.2446 38.0464C10.0784 37.8693 10.0473 37.6326 10.1703 37.5185C10.2952 37.4063 10.5249 37.4587 10.6914 37.636C10.8576 37.8151 10.8898 38.0504 10.7631 38.1639M11.6206 39.5901C11.4648 39.6983 11.2102 39.5969 11.053 39.371C10.8974 39.1453 10.8974 38.8743 11.0564 38.7658C11.2142 38.6572 11.4648 38.7548 11.6242 38.9789C11.7796 39.2086 11.7796 39.4796 11.6204 39.5903M13.0701 41.2423C12.9308 41.3957 12.6344 41.3546 12.4173 41.145C12.1953 40.9402 12.1334 40.6496 12.273 40.496C12.4139 40.3422 12.7121 40.3854 12.9308 40.5932C13.1514 40.7976 13.2185 41.0905 13.0701 41.2423ZM14.9435 41.8001C14.8824 41.9989 14.5967 42.0893 14.309 42.0049C14.0218 41.9178 13.8337 41.6847 13.8917 41.4837C13.9514 41.2835 14.2383 41.1893 14.5282 41.2797C14.8151 41.3664 15.0033 41.5977 14.9435 41.8001ZM17.076 42.0365C17.0832 42.2461 16.8391 42.4198 16.5371 42.4236C16.2333 42.4302 15.9877 42.2607 15.9845 42.0547C15.9845 41.8431 16.2229 41.671 16.5265 41.666C16.8286 41.66 17.076 41.8284 17.076 42.0365ZM19.1706 41.9563C19.2068 42.1607 18.9969 42.3706 18.697 42.4264C18.4022 42.4802 18.1293 42.3541 18.0916 42.1515C18.0549 41.9419 18.2689 41.7321 18.5632 41.6778C18.8636 41.6256 19.1323 41.7485 19.1706 41.9563Z" fill="#24BCCF"/>
</g>
<defs>
<clipPath id="clip0_61_111">
<rect width="51" height="49.6128" fill="white" transform="translate(0 0.864014)"/>
</clipPath>
</defs>
</svg>
