<svg width="48" height="57" viewBox="0 0 48 57" fill="none" xmlns="http://www.w3.org/2000/svg">
<path d="M7.66893 25.3575C6.08534 26.1024 1.89399 29.4557 1.08673 30.4493C0.248366 31.4428 5.86808e-05 29.8905 0.869363 27.3135C1.55225 25.2333 3.29116 22.4079 6.20957 19.9862C7.91709 18.589 11.674 16.571 13.9714 15.3911C14.4372 15.1426 20.4605 12.5967 25.8318 11.3238C26.2976 11.1996 25.273 12.1 25.1177 12.5967C24.3104 14.9564 8.19649 25.078 8.19649 25.078L7.66893 25.3575ZM30.3647 53.8283C30.6441 55.5048 30.3958 55.6291 28.6572 55.8464C26.9185 56.0638 25.6455 55.4117 25.1799 54.9771C24.714 54.5422 24.6211 53.58 25.0867 52.7107C25.3663 52.1517 25.6457 51.9654 25.801 51.2824C25.9562 50.6305 26.0804 50.4751 26.2045 50.2268C26.3286 50.0093 26.3598 49.7919 26.3908 48.2707C26.4219 46.7494 26.3908 43.8929 26.5461 42.6822C26.7014 41.4403 32.0727 43.241 32.0727 43.241C32.0727 43.241 30.7996 46.4079 30.4582 47.184C30.1166 47.9603 30.1477 49.4505 30.1477 49.761C30.1477 50.0715 30.0236 50.6923 29.9303 50.7234C29.8372 50.7544 30.2408 51.5616 30.0544 52.0275C29.9302 52.4622 30.3338 53.58 30.3647 53.8283ZM32.414 6.35614C32.2276 5.17633 32.414 2.84752 32.6623 2.47513C33.4386 1.41941 37.5368 1.29533 38.4063 2.53717C38.7788 3.09598 38.7477 4.40001 38.6857 5.23837C38.6237 6.07658 38.4063 7.87738 38.3752 8.46744C38.3443 8.90216 33.8423 9.58505 32.8487 8.40524C32.5692 8.0949 32.414 6.35614 32.414 6.35614ZM41.5421 50.8166C43.436 52.1828 44.8952 52.4311 45.8577 52.9279C46.8201 53.4248 46.5718 54.3872 44.9573 54.6666C43.6532 54.9149 41.6041 54.4182 40.238 54.4182C38.872 54.4182 35.8292 54.5735 35.0219 54.0147C34.0906 53.3627 34.4941 52.1517 34.4941 52.1517C34.7425 51.4688 35.3634 49.9473 35.1771 48.7054C34.9908 47.4636 34.7424 46.7805 34.2767 45.6317C33.811 44.483 33.4696 41.6577 33.9043 41.5024C34.339 41.347 34.2146 41.5024 34.7736 41.6265C35.3324 41.7505 35.9534 41.937 37.1643 41.937C38.3752 41.937 39.7102 41.7505 40.176 41.6575C40.6417 41.5644 41.0142 41.4711 40.8589 42.4337C40.7037 43.3962 40.238 45.197 40.2069 46.5941C40.176 47.9913 40.176 49.6058 40.2691 49.8852C40.3621 50.1646 41.0453 50.4751 41.5421 50.8166Z" fill="#010101"/>
<path d="M34.8978 9.46093C31.4827 12.4106 24.8694 13.2177 15.0584 17.0056C12.5435 17.968 5.83719 20.8555 4.22266 23.8672C9.656 20.7314 11.6742 25.047 12.1087 29.4868C12.5122 33.6472 14.5926 35.8207 19.9328 35.6963C25.4283 35.5722 27.1049 38.77 28.6261 42.527C31.5756 28.1517 36.295 25.3575 39.3375 22.9047C45.7956 17.6575 37.8474 8.40521 34.8978 9.46093Z" fill="#8AC640"/>
<path d="M34.8978 9.46082C26.7012 12.3172 18.5976 13.0313 9.06604 18.8994C6.79957 20.2966 2.01817 23.4633 1.08667 29.5178C4.56389 25.6677 12.6053 20.8244 22.4475 17.7507C27.4152 16.1982 31.0479 15.1737 35.4566 13.466C35.1462 11.4788 35.1462 10.7027 34.8978 9.46082Z" fill="#8AC640"/>
<path d="M45.3609 26.475C45.3609 26.475 44.771 28.4932 43.5912 29.1453C43.5912 29.1453 42.7218 29.4558 40.9832 28.4933C40.4865 28.2139 40.1139 27.2515 40.1449 26.9408C40.176 26.1956 40.6416 25.8542 40.6416 25.8542C40.6416 25.8542 41.1386 25.0158 41.7283 25.0469C42.3184 25.0778 43.3119 25.171 43.6224 24.8916C43.9016 24.5811 45.423 25.4504 45.3609 26.475ZM32.6934 6.94592C32.6934 6.94592 32.5693 8.52951 32.3519 9.52289C32.3208 9.70931 31.3895 9.80229 30.7063 10.0818C32.0103 13.8075 39.8655 13.7764 40.8901 11.9447C40.3933 11.6032 39.3998 11.0754 38.9341 10.8891C38.4683 10.7027 38.4994 10.7338 38.4683 9.86448C38.4374 8.99503 38.3752 7.38065 38.313 6.94592C38.2509 6.51119 33.4384 6.51119 32.6934 6.94592Z" fill="#010101"/>
<path d="M33.0038 6.94583C33.0038 6.94583 33.0038 7.84623 32.9106 8.71553C32.8797 9.11916 32.8486 9.36747 32.7865 9.67797C32.7554 9.86439 33.8421 10.6093 34.1526 12.2549C35.6429 15.577 39.0893 13.9315 40.5175 12.3481C40.0207 12.0065 39.2134 11.5408 38.2821 11.1683C37.8163 10.9819 38.0336 10.5784 38.0027 9.70907C37.9716 8.83976 37.8474 7.56667 37.7853 7.101C37.723 6.63533 33.749 6.5111 33.0038 6.94583Z" fill="#F0EFEF"/>
<path d="M32.6934 6.94592C32.6934 6.94592 32.6623 7.50488 32.5693 8.15682C32.9728 8.5603 33.5007 9.11926 33.9045 9.46085C34.1839 9.70931 34.8668 9.67822 35.4879 9.67822C36.0467 9.67822 36.5435 9.74025 36.7608 9.61618C37.2578 9.36772 37.9717 8.74687 38.3754 8.28105C38.3444 7.72224 38.3133 7.19438 38.2824 6.94592C38.251 6.51119 33.4385 6.51119 32.6934 6.94592Z" fill="#010101"/>
<path d="M35.519 9.30545C35.1463 9.30545 34.7116 9.27451 34.3702 9.21232C34.2148 9.18137 34.0597 9.08824 33.9354 9.02605C33.7181 8.87072 33.5007 8.68461 33.2525 8.49818C32.7556 8.12565 32.7247 7.90828 32.7247 7.8153C32.942 5.85917 32.6625 4.2137 32.6625 4.2137C32.6625 4.2137 32.4451 3.37534 33.6249 3.15798C34.8047 2.94061 35.5189 2.90967 35.5189 2.90967C35.5189 2.90967 36.2641 2.90967 37.4128 3.15798C38.5926 3.37534 38.3752 4.2137 38.3752 4.2137C38.3752 4.2137 38.0958 5.85917 38.3132 7.8153C38.3132 7.90828 38.2823 8.12565 37.7853 8.49818C37.3506 8.80868 37.0092 9.15012 36.6677 9.21232C36.3261 9.27451 35.8914 9.30545 35.519 9.30545Z" fill="#010101"/>
<path d="M35.5188 2.10242C33.4697 2.10242 33.0659 2.66122 32.476 3.28222C32.3519 3.43739 32.4449 4.36889 32.6624 6.35596H32.9418C32.9418 6.35596 32.7554 5.797 32.7865 5.14506C32.8176 4.49312 32.9418 4.52421 32.8485 4.36889C32.7245 4.18247 32.476 3.87197 33.0349 3.56162C33.5938 3.25112 34.4631 3.80993 35.5188 3.84103C36.5744 3.80993 37.4748 3.25112 38.0336 3.56162C38.5924 3.87197 38.3441 4.18247 38.22 4.36889C38.0958 4.55516 38.2509 4.49297 38.282 5.14506C38.313 5.797 38.1267 6.35596 38.1267 6.35596H38.4061C38.5924 4.36889 38.7166 3.49958 38.6235 3.34426C38.0956 2.66122 37.5679 2.13336 35.5188 2.10242ZM45.3608 26.5681C45.3608 26.5681 44.7709 28.462 43.6222 29.114C43.3738 28.9899 43.4049 28.8036 43.1875 28.5241C43.1253 28.4311 42.9079 28.3687 42.815 28.2758C42.7218 28.1826 42.7529 28.0273 42.5976 27.9032C42.4734 27.779 42.3802 27.8721 42.256 27.779C42.1319 27.6549 42.1007 27.4996 42.0077 27.4066C41.9455 27.3444 41.6972 27.3135 41.6352 27.2513C41.4798 27.0959 40.1139 26.8165 40.176 26.506C40.3 26.0402 40.5485 25.6988 40.5485 25.6988C40.5485 25.6988 41.1384 24.8295 41.7281 24.8604C42.318 24.8915 42.877 25.0157 43.1875 24.7363C43.5291 24.4257 45.4541 25.5746 45.3608 26.5681Z" fill="#010101"/>
<path d="M41.3248 12.845C41.3248 12.845 43.2808 12.3792 44.6159 13.6523C45.951 14.9563 45.8577 16.5707 45.4543 17.5642C45.7957 17.9679 46.4167 19.0855 45.951 20.4206C48.0001 22.1592 47.0997 24.8295 45.268 26.5992C45.268 26.5992 44.8333 24.9846 43.0947 24.8915C43.1567 24.2707 41.4801 23.7737 42.2563 22.1592C41.0765 21.8798 41.1076 21.0725 40.9213 20.0792C40.766 19.0855 41.3248 12.845 41.3248 12.845Z" fill="#010101"/>
<path d="M40.6105 13.7144C40.6105 13.7144 42.8769 12.5657 44.2121 13.8697C45.547 15.1738 45.1744 16.6019 44.7709 17.5954C45.1123 17.9989 45.9196 19.1479 45.4228 20.5138C45.3297 20.8243 44.6466 20.8243 44.1497 21.6316C45.3916 20.9173 46.1679 21.1037 46.4473 22.004C46.882 23.4011 45.9194 25.0777 45.0812 26.0092C45.0812 25.9781 45.0501 25.947 45.0501 25.9161C44.926 26.3819 44.7707 27.2821 43.8394 28.2757C43.3736 28.7724 43.001 28.7104 42.4731 28.5862C41.8523 28.4308 41.6349 28.1513 40.7656 27.6858C40.2689 27.4064 40.5483 27.0648 40.5483 26.7854C40.5483 26.7233 40.6103 26.63 40.7036 26.506C40.7656 26.3506 40.9519 26.1025 41.2313 25.8229C41.2313 25.8229 41.6349 25.2641 42.225 25.2951C42.8149 25.3262 43.4357 25.2021 43.5911 25.0468C43.5911 23.9601 42.3492 23.929 42.7838 22.0662C42.8149 21.973 42.9702 21.8177 43.4668 21.7557C42.7216 21.6003 42.3802 21.5692 41.8523 21.0726C41.4798 20.7312 41.2004 20.2964 41.1071 19.7376C40.921 18.7752 40.6105 13.7144 40.6105 13.7144Z" fill="#F0EFEF"/>
<path d="M34.0594 11.7585C33.8732 11.51 32.9107 10.2682 31.0788 9.77142C30.551 9.61609 30.2095 10.0508 29.6818 10.3613C29.5265 10.2682 28.8434 9.95769 28.4709 10.1749C28.0984 10.3921 27.8501 10.6096 27.4774 10.7648C27.2909 10.6717 26.7943 10.6717 26.3907 10.8268C25.9871 10.9511 25.3661 11.2305 24.7762 12.0377C24.4036 13.3729 31.3582 12.3792 31.3582 12.3792L34.0594 11.7585Z" fill="#010101"/>
<path d="M34.1215 11.7584C33.1279 11.4168 33.2832 10.2681 31.0788 10.0818C30.644 10.0507 30.3646 10.3922 30.0541 10.6095C30.2094 10.7649 30.3646 11.0132 30.4578 11.2615C30.1784 10.9511 29.6816 10.5473 29.1847 10.4542C28.719 10.3612 28.4085 10.7027 27.9117 10.9511C28.0047 11.0441 28.098 11.1994 28.2221 11.3859C27.7873 11.1064 27.477 11.0133 26.8871 11.2305C26.4835 11.3546 25.7073 11.6962 25.1174 12.5346C24.7449 13.8697 31.3891 12.3792 31.3891 12.3792L34.1215 11.7584Z" fill="#8AC640"/>
<path d="M39.9586 12.2551C39.9586 12.2551 39.9586 11.9135 39.9275 11.6031C39.9275 11.5411 39.6792 11.3858 39.6792 11.3237L39.6172 11.2615C39.6172 11.2615 40.114 10.9821 40.4865 11.1375C40.89 11.2615 41.1073 11.7894 41.1073 11.7894C41.8215 11.5411 41.8835 11.8205 42.2251 12.193C42.9703 12.0377 43.0633 12.3171 43.5291 13.0003C43.5291 13.0003 42.9703 12.9072 41.8837 13.0933C40.8279 13.2484 39.9586 12.224 39.9586 12.2551Z" fill="#010101"/>
<path d="M39.8342 12.0998C39.8342 12.0998 40.0205 11.9445 39.9583 11.9134C40.2997 11.7272 40.7655 11.5099 40.9829 12.0998C41.697 11.8514 41.7902 12.193 42.1316 12.5657C43.0009 12.162 43.0629 12.6586 43.1251 12.876C42.8457 12.876 42.4423 12.9071 41.8833 12.9691C40.8277 13.1245 39.8031 12.0687 39.8342 12.0998Z" fill="#8AC640"/>
<path d="M29.2785 11.3237C29.2785 11.3237 31.0482 11.9446 32.5385 11.8514C34.0288 11.7274 36.5747 11.6031 37.9408 12.4104C37.9408 12.4104 39.3379 11.9135 40.642 12.2551C41.9462 12.5965 44.3367 14.832 43.6227 17.1917C43.5605 17.347 43.1569 17.5953 42.6912 17.7506C42.6912 17.7506 42.9397 18.8062 42.505 19.6755C42.0702 20.5138 41.1078 22.1284 41.0767 24.3638C41.0458 24.7363 40.9837 25.5125 40.9215 25.885C38.4997 25.792 34.7741 24.8915 31.1104 24.9537C31.1414 24.5502 31.1725 24.3017 31.2035 23.8981H31.2965C31.1103 22.8735 31.0482 22.3456 30.8618 21.5694C29.682 20.8243 28.44 19.955 27.3846 18.3094C26.36 16.6638 29.2785 11.3237 29.2785 11.3237ZM41.263 28.0896C41.263 28.0896 43.188 34.9823 40.9215 37.8698C40.9215 37.8698 41.263 39.2047 40.4868 40.633C40.3626 41.2538 40.2072 41.8128 40.1143 42.4336C39.7106 45.0106 39.0274 46.0973 38.8412 50.2266L36.9782 50.1957C36.9782 50.1957 36.7608 47.215 36.1089 45.6316C35.7365 44.7314 34.277 43.5203 34.3393 42.3096C34.4014 41.3781 34.5876 40.6019 36.1712 39.3599C36.2953 37.5593 34.4945 35.8514 34.7741 29.1452L41.263 28.0896Z" fill="#010101"/>
<path d="M40.7036 27.81C41.2004 30.9769 42.3491 35.6652 40.2689 37.9626C40.3917 38.5451 40.4022 39.1458 40.2999 39.7323C40.2378 40.1048 40.1136 40.5085 39.9584 40.943C39.6479 41.6883 39.5237 42.7749 39.4305 43.4269C39.0269 46.0038 39.0269 46.1282 38.8406 50.2575L36.9777 50.2264C36.9777 50.2264 36.7603 47.2458 36.1083 45.6625C35.736 44.7621 34.9596 43.986 34.8976 42.7751C34.8356 41.8437 35.4875 39.9809 37.04 40.0429C36.9469 36.2862 35.2081 37.0312 34.7424 29.2072L40.7036 27.81ZM29.278 11.3237C29.278 11.3237 29.961 11.5411 30.7061 11.6031C31.4513 11.6652 32.2586 11.6031 32.9726 11.572C34.4629 11.448 36.5742 11.2926 37.9713 12.0999C37.9713 12.0999 38.7475 11.8514 39.5859 11.9135C39.9584 11.9446 40.3311 12.2551 40.7657 12.3793C42.1317 12.7207 43.4358 14.9872 42.8457 17.0365C42.7837 17.1918 42.349 17.0365 41.8522 17.1918C41.9452 17.6265 42.0075 18.6201 41.5106 19.6756C40.9829 20.7314 40.2999 22.0974 40.4239 24.7055C37.1639 24.5502 35.7047 24.333 32.4757 24.1776C32.1962 23.0288 32.0098 21.8801 31.9789 21.2902C32.4136 21.0728 32.6618 20.8867 33.0035 20.514C32.0722 20.6693 31.6995 20.6071 31.1405 20.2966C30.5817 19.9861 29.5882 18.9926 29.0914 18.3407C29.0294 18.2785 28.6879 19.3029 27.9118 19.3342C27.6322 18.9306 28.812 17.7817 28.5946 17.3471C27.8186 15.7635 29.278 11.3237 29.278 11.3237Z" fill="#F0EFEF"/>
<path d="M40.952 25.2328C40.952 25.2328 41.0141 26.3506 41.0141 26.63C41.0141 26.9405 41.2625 27.8719 41.2935 28.3066C40.952 28.8965 39.4617 30.2316 36.7605 30.7284C34.0904 31.2872 30.551 27.0958 30.551 27.0958C30.6442 26.6922 30.9547 25.5122 31.172 24.8914C31.2031 24.8294 31.2652 24.674 31.2652 24.612C31.5447 24.2084 40.952 25.2328 40.952 25.2328Z" fill="#010101"/>
<path d="M40.269 25.3263C40.269 26.1025 40.3931 26.6614 40.4864 27.1582C40.6415 28.0586 40.8898 28.6485 40.8898 29.2384C40.8898 31.0391 38.5302 30.7286 36.543 30.7907C33.8729 31.3497 31.6064 27.1582 31.6064 27.1582C31.7927 26.4441 31.9169 25.637 32.1963 24.9538C32.2273 24.5812 32.2895 24.1156 32.3204 23.8982C36.1083 23.8982 38.7784 24.1156 40.3309 24.2706C40.3931 24.6122 40.331 25.2021 40.269 25.3263Z" fill="#F0EFEF"/>
<path d="M37.2884 29.3313C37.2884 29.3313 35.643 25.6677 30.7062 26.7545C29.5266 30.0765 27.943 33.8955 28.9676 38.0248C27.943 39.422 26.7632 40.1983 26.7632 42.7751C26.7632 45.3521 26.8874 45.7868 26.8874 45.7868L30.52 45.9732C30.52 45.9732 31.6998 44.452 32.1654 42.8064C32.2897 42.3405 32.4139 41.5023 32.3208 40.5399C32.4448 40.3536 32.9727 39.919 33.0349 39.0807C33.0349 39.0807 34.8046 38.1493 35.8292 35.8829C36.7918 33.8333 36.5434 32.0636 37.2884 29.3313Z" fill="#010101"/>
<path d="M37.2883 29.3314C37.1953 28.9899 35.9533 25.6368 31.3582 26.6301C28.6572 33.8333 29.6507 36.814 30.0542 38.1178C28.2223 40.4463 27.3841 40.9431 27.7568 45.6625H30.1786C31.2962 43.8928 31.5446 43.2407 31.6067 40.9122C31.6067 40.819 31.2652 41.0984 31.0168 41.4089C31.2032 40.4465 31.7309 40.2602 32.1345 39.6703C32.3208 39.4219 32.476 39.0493 32.476 38.5526C34.6493 37.0934 35.4566 35.2615 35.9222 33.3675C36.2949 32.0636 36.7295 29.9213 37.2883 29.3314Z" fill="#F0EFEF"/>
<path d="M29.62 24.3329C29.62 24.3329 30.4584 24.3638 31.2036 24.6123C31.9177 24.8606 31.9177 25.0158 32.1971 25.3264C32.4765 25.6371 33.1596 26.1026 33.0355 26.5683C32.9733 26.8167 32.8181 26.8788 32.6008 27.0961C32.5076 27.1893 31.8244 27.9343 31.6693 28.0275C31.5761 28.0895 31.4519 28.1828 31.3588 28.2448L30.8931 28.5553C30.5826 28.7107 30.3652 28.8038 30.0238 28.7727C30.0238 28.7727 29.2476 28.7416 28.7507 28.2139C28.7507 28.2139 28.6887 27.9654 28.8129 27.8414C28.8129 27.8414 28.1608 27.2824 27.9745 26.9099C27.7881 26.5375 27.7881 26.0096 27.9125 25.7302C27.9745 25.4505 29.1853 24.6743 29.62 24.3329ZM30.3963 54.5424L30.3032 55.3187C30.3032 55.3187 30.0238 55.6602 27.9436 55.6292C25.8323 55.5981 25.2735 54.9462 25.0872 54.6046L24.9631 53.7973C24.9631 53.7973 25.3668 53.2074 25.4599 53.2074C26.1429 53.2695 28.4716 54.201 30.0861 54.4493C30.241 54.4493 30.2719 54.5113 30.3963 54.5424ZM34.8982 52.959C34.8982 53.3004 34.8671 53.3004 34.8671 53.642C35.2396 53.9214 36.1713 54.0767 37.9408 54.0455C40.5178 53.9834 42.9085 54.8218 45.8269 54.3249L45.858 53.7661L45.5786 53.7351L35.2396 52.8968L34.8982 52.959Z" fill="#010101"/>
<path d="M37.1644 54.0455H37.9406C39.6173 53.9835 41.2007 54.356 42.9083 54.4492C43.8087 54.4181 44.9264 54.2007 44.8333 53.5488L36.0157 52.8035C35.4878 53.3934 35.8913 53.8902 37.1644 54.0455ZM27.0428 40.9744C27.3222 41.1607 29.2161 42.2785 32.2899 42.1231C32.2277 42.713 32.2588 43.8619 30.8927 45.8799C30.2097 46.8734 29.6196 48.6122 29.4955 50.8166C29.5266 51.3134 29.806 51.748 29.4335 52.4001C29.5576 52.8035 30.0543 53.6108 30.3028 54.1076C30.5511 54.6045 30.6753 55.1633 29.0297 55.1944C27.3531 55.2253 24.6519 55.0391 25.0246 53.7352C25.2111 53.0522 25.7388 52.338 25.801 52.0585C25.863 51.7791 25.863 50.9409 26.3907 50.3819C26.8565 48.8296 26.7012 47.3393 26.6082 45.9421C26.4529 44.4827 26.4218 42.1542 27.0428 40.9744ZM29.9303 15.6704C32.1347 12.7207 30.2717 10.3613 26.7325 11.0752C25.3042 11.3546 23.8761 12.3483 23.7828 14.149C23.3171 14.211 22.2615 14.2731 21.7337 16.1981C21.3302 17.6884 21.1128 17.9678 20.3986 18.7129C19.9329 19.2407 20.4297 20.3274 20.7711 21.1037C21.92 23.7738 25.4594 24.0221 27.8501 26.0403C28.6573 25.8229 29.4955 24.9227 29.744 24.3328C27.7258 21.9419 28.1604 21.0106 27.3531 19.7687C28.2226 19.4581 30.2097 18.2474 29.9303 15.6704Z" fill="#010101"/>
<path d="M29.4954 15.484C29.6194 15.2976 29.8368 14.8941 29.9301 14.7388C29.9612 14.7077 30.3026 15.2976 30.3337 15.2667C31.1719 13.9004 31.3893 11.9134 30.4267 11.7271C30.2093 11.696 29.8059 11.603 29.4643 11.4786C28.8434 11.2613 28.2846 11.2613 27.2909 11.4477C25.9249 11.696 24.5588 12.6895 24.5588 14.1178C24.5588 14.2109 25.5211 14.4903 25.8006 15.6392C25.3348 14.9871 24.5275 14.273 23.5651 14.894C22.5405 15.5459 23.0683 17.0362 21.7023 18.5886C21.2364 19.1164 21.2986 19.7374 21.7952 20.9793C22.6025 22.9354 26.4215 23.9909 28.5017 25.8538C28.9984 25.6364 29.3399 25.1397 29.5883 24.7671C28.1912 23.3079 27.6322 21.9417 27.2287 20.9482C26.732 19.7994 26.173 19.1475 25.0863 18.2779C25.6453 18.4953 26.08 18.7126 26.3282 18.8989C26.6076 19.0852 27.0112 19.1163 27.3839 18.992C28.7192 18.5267 29.4333 16.6637 29.4954 15.484Z" fill="#F0EFEF"/>
<path d="M43.0012 15.9809C42.9081 17.1607 42.0387 16.5708 41.5731 16.3534C40.6416 15.9498 39.7101 15.6704 38.6234 15.6704C37.5367 15.6704 36.1396 15.7635 34.9288 16.074C33.2523 16.5397 32.7553 16.5087 32.0103 16.1361C31.2652 15.7324 29.9613 14.7389 29.9613 14.7389C29.9613 14.7389 29.9302 15.0494 30.2407 15.453C30.6442 15.9498 31.5448 16.5708 32.7555 16.9743C33.3454 17.1607 33.8112 17.0363 34.3391 16.9122C37.1023 16.2292 40.0207 16.105 42.4735 17.5953C42.5977 17.6573 43.0324 17.471 43.2187 17.1916C43.4669 16.7882 43.0012 15.9809 43.0012 15.9809Z" fill="#010101"/>
<path d="M28.8745 27.8101C29.1228 27.9654 29.4333 28.0585 29.7748 28.3379C29.7748 28.3379 29.4954 28.3379 29.3713 28.2138C29.216 28.1207 28.9055 27.8413 28.8745 27.8101Z" fill="#0A1825"/>
<path d="M37.8472 3.18904C37.7541 2.90964 37.0709 2.41272 35.4876 2.41272C33.78 2.41272 33.2832 2.94058 33.2522 3.21999C33.2522 3.31312 33.128 4.30681 33.0969 4.71029C33.0969 4.71029 33.0969 5.20705 33.1279 5.95213C33.159 6.4489 33.2832 6.7283 33.3452 7.38039C33.4073 8.06328 33.5937 8.498 33.9351 9.05696C34.0905 9.14994 34.2145 9.24323 34.3699 9.27433C34.9909 9.3984 36.0775 9.4295 36.6674 9.27433C37.0089 9.18119 37.4436 8.59129 37.5367 8.06343C37.6608 7.41149 37.785 6.94566 37.8161 6.54218C37.8782 6.1387 37.9093 5.23815 37.9402 4.98969C38.0335 4.30681 37.8782 3.25108 37.8472 3.18904Z" fill="#F0EFEF"/>
<path d="M34.5873 41.5643C34.5873 41.5643 36.233 42.2785 40.3002 41.6575C40.3002 41.6575 39.1515 47.4324 39.6794 50.3197C39.6794 50.3197 40.2071 51.0649 44.1192 52.4931C44.1192 52.4931 45.8578 52.9278 45.7958 53.7972C45.7958 53.7972 45.8578 53.9835 43.7467 53.9213C41.6355 53.8591 39.6483 53.4866 38.2511 53.4866C36.854 53.4866 35.3637 53.5486 35.1154 53.1451C34.836 52.7726 35.1774 51.81 35.581 51.2511C36.0159 50.6613 35.8915 50.2264 35.8606 49.171C35.7672 46.4078 33.6559 43.5514 34.5873 41.5643Z" fill="#010101"/>
<path d="M34.2458 42.092C34.0284 42.4025 34.2767 43.5822 34.5872 44.731C34.8977 45.8797 35.5809 46.5629 35.7361 48.4567C35.8913 50.3196 35.9224 50.568 35.3945 51.6545C34.8666 52.741 34.7115 53.7347 36.5432 53.7658C38.3749 53.7969 39.3686 53.7347 41.2315 54.0143C43.0945 54.2937 43.7464 54.3868 44.771 54.2317C45.7957 54.0765 46.0129 53.7347 45.5783 53.4244C45.1436 53.1139 43.3428 52.7724 42.5666 52.1513C41.8214 51.5925 39.7102 50.661 39.6793 50.4127C39.5861 49.5743 39.5551 46.5317 39.7102 45.5382C39.8656 44.5445 40.0828 43.1164 40.145 42.7438C40.2071 42.3713 40.5175 41.9986 39.9896 42.1228C39.4619 42.2469 37.4748 42.5265 35.9845 42.4333C34.4942 42.3403 34.3391 41.9987 34.2458 42.092Z" fill="#8AC640"/>
<path opacity="0.3" d="M35.3015 51.6858C35.8292 51.9341 36.6055 52.1206 37.1954 52.1206C37.1954 52.1206 36.9779 53.1452 37.3195 53.766C37.6609 54.387 34.8357 54.0145 34.8357 54.0145L34.7116 51.8101L35.3015 51.6858ZM43.5292 54.3559C44.0259 54.2006 44.3675 53.6418 43.9639 53.1141C43.5292 52.5862 43.1566 52.4931 43.7154 52.4621C44.2744 52.4311 46.3235 53.6729 46.3235 53.6729L45.2678 54.6353L43.5292 54.3559ZM34.1526 43.3028C34.8667 43.5513 35.9534 43.6133 36.8849 43.5822C37.8163 43.5513 39.2134 43.4269 40.114 43.1166C41.0142 42.8061 40.6417 43.458 40.6417 43.458L40.1449 43.9238C40.1449 43.9238 38.9651 44.3895 37.0402 44.3585C34.7738 44.3275 34.0906 44.0791 34.0906 44.0791L34.1526 43.3028ZM34.2147 44.8553C34.9289 45.1038 36.0155 45.1658 36.9469 45.1347C37.8783 45.1038 39.1203 45.1038 40.0207 44.7622C40.3932 44.6381 40.176 45.1658 40.176 45.1658L40.0207 45.4452C40.0207 45.4452 38.8098 45.8799 36.9159 45.8487C34.6494 45.8178 34.2458 45.6313 34.2458 45.6313L34.2147 44.8553Z" fill="#010101"/>
<path d="M32.1655 23.0911C32.1655 23.3084 34.5873 24.5192 35.9223 24.7676C37.2574 25.0159 40.0518 24.7676 40.4863 24.6745L40.4242 25.1092C40.4242 25.1092 37.1021 25.606 34.5562 24.923C32.0102 24.2399 32.2898 24.0846 32.2898 24.0846L32.1655 23.0911Z" fill="#010101"/>
<path d="M26.9804 49.5743C27.3529 49.7607 28.6881 50.1022 29.5574 49.9159C29.6814 49.8848 29.5574 47.7735 29.899 46.8111C30.3957 45.476 31.203 44.3893 31.5754 42.0298C30.2713 41.9056 28.7812 41.564 28.0049 41.3156C27.0115 44.3583 27.3531 46.9663 26.9804 49.5743ZM29.0608 51.5305C29.2781 51.5925 29.4333 51.8408 29.4955 51.6858C29.6196 51.4062 29.2781 50.8785 29.247 50.506V50.4749C28.9676 50.2266 27.0737 50.1955 27.1979 50.3196C26.9806 50.7232 26.6391 50.6611 26.515 51.4684C26.453 51.8719 26.9498 51.5304 27.4153 51.4994C26.5771 52.0582 25.6146 52.7724 25.4593 53.3933C25.273 54.2626 25.5835 54.5111 26.515 54.9769C27.3223 55.1631 28.2847 55.1942 29.0298 55.1631C29.8682 55.0078 30.0235 54.6043 29.775 54.0454C29.4022 53.207 29.1539 52.1204 29.0608 51.5305Z" fill="#F0EFEF"/>
<path d="M29.4021 11.1995C30.4267 11.7894 31.855 11.6342 32.3827 11.6031C32.5069 11.6031 33.7489 11.3857 33.811 11.4167C33.935 11.4478 33.935 11.5409 33.935 11.5409C33.935 11.5409 33.4694 11.7892 32.4138 11.8513C31.4203 11.9133 30.2404 11.8513 29.5885 11.5409C28.8122 11.1995 29.4021 11.1995 29.4021 11.1995ZM39.9584 11.7894C40.1447 11.9134 41.3556 12.3793 41.8835 12.9381C42.3491 13.435 42.1008 13.4039 42.0075 13.2797C41.8835 13.1243 40.9209 12.4724 40.5483 12.3172C40.1758 12.1621 39.71 11.8825 39.71 11.8205C39.71 11.7584 39.9584 11.7894 39.9584 11.7894Z" fill="#010101"/>
<path d="M29.247 24.6742C30.1474 24.6122 31.0789 24.8296 31.6688 25.4504C31.9793 25.7609 32.4761 26.1023 32.414 26.4128C32.414 26.506 32.2276 26.7544 32.0726 26.9407C31.9795 27.0648 31.7001 27.3442 31.6068 27.4375C31.4827 27.5306 31.048 27.8722 30.9548 27.9342C30.8617 27.9964 30.7375 28.1518 30.6443 28.1827C30.334 28.338 29.9924 28.2138 29.6819 28.0586C29.3715 27.9033 29.7441 27.8722 29.4025 27.6239C28.5643 27.034 28.0985 26.6302 28.4401 25.4815C28.471 25.2641 28.8124 25.0157 29.247 24.6742Z" fill="#F0EFEF"/>
<path opacity="0.4" d="M21.3299 17.5643C18.5355 18.682 11.4255 22.2216 9.40747 23.3083C11.084 24.3638 11.8602 26.9097 12.1087 29.4867C12.1396 29.7352 12.1707 29.9525 12.2018 30.2008C12.2327 30.4182 12.2638 30.5734 12.2948 30.6667C12.2948 30.6977 12.2948 30.7598 12.3259 30.7907C14.1578 25.7921 20.7087 20.5139 20.9572 20.1103C21.0813 19.924 20.8019 19.1168 21.2366 18.3408C21.7956 17.3469 22.8824 16.9122 21.3299 17.5643ZM27.9741 41.0055C29.4022 38.1491 29.4333 35.4168 29.4022 32.2188C29.4022 30.8837 30.3647 28.9898 29.8681 29.5176C28.0051 31.5977 23.317 35.5099 19.9327 35.7272C24.683 35.572 26.5459 37.9627 27.9741 41.0055Z" fill="#010101"/>
<path d="M6.67505 25.9472C8.44475 24.6743 17.6039 19.7999 19.8084 19.1167C22.0126 18.4026 21.3296 17.5642 21.3296 17.5642C21.3296 17.5642 12.3878 21.4141 7.04759 24.7363" fill="#010101"/>
<path opacity="0.4" d="M32.7552 16.9744C32.0411 16.695 31.4823 17.5334 31.6686 18.3406C31.855 19.1479 33.5316 20.0482 33.4383 22.9978C33.3762 25.4196 32.8484 26.413 32.8484 26.413L31.6686 24.9228C31.6686 24.9228 31.4823 21.5695 31.0787 21.0728C30.6752 20.576 29.4021 19.6756 28.9053 19.2099C28.4086 18.7441 29.4641 18.1233 29.4021 17.2538C29.3401 16.4156 29.93 14.739 29.93 14.739L32.7552 16.9744ZM37.071 30.2007C37.0089 32.5292 37.5368 35.9756 37.754 37.6213C37.9714 39.2668 38.2508 39.391 37.754 40.1362C37.2572 40.8503 36.6053 42.0301 36.6053 42.0301L34.4629 41.8437C34.4629 41.8437 36.1706 39.6704 36.2636 39.2668C36.3567 38.8633 35.3942 35.7895 35.3942 35.7895L37.071 30.2007ZM32.9417 8.46733C33.3764 9.42962 33.9041 9.86435 34.7423 10.1439C35.2391 10.3302 37.195 10.5786 37.9714 9.70917C38.3128 9.30554 38.0954 8.21887 38.0954 8.21887L36.3257 9.64698L33.935 9.21241L33.6556 8.49828L32.9417 8.46733Z" fill="#010101"/>
<path d="M33.1279 10.6096C33.9352 11.1375 35.9534 11.6342 36.5122 11.7274C37.071 11.8515 37.9714 11.1375 38.4061 10.9512C38.8719 10.7338 39.6792 10.6096 40.6106 11.448C40.7037 11.5411 40.3932 11.9447 40.3932 11.9447C40.3621 11.9137 40.1758 11.9137 39.9274 11.7894C39.6791 11.6653 39.4617 11.5721 39.0892 11.6032C37.5367 11.7894 37.2884 12.3173 35.9223 12.0066C34.5562 11.696 34.2146 11.4478 32.8796 11.5099" fill="#8AC640"/>
<path d="M33.1279 10.6096C33.9352 11.1375 35.9534 11.6342 36.5122 11.7274C37.071 11.8515 37.9714 11.1375 38.4061 10.9512C38.8719 10.7338 39.6792 10.6096 40.6106 11.448C40.7037 11.5411 40.3932 11.9447 40.3932 11.9447C40.3621 11.9137 40.1758 11.9137 39.9274 11.7894C39.6791 11.6653 39.4617 11.5721 39.0892 11.6032C37.5367 11.7894 37.2884 12.3173 35.9223 12.0066C34.5562 11.696 34.2146 11.4478 32.8796 11.5099" stroke="#010101" stroke-width="0.241753" stroke-miterlimit="10" stroke-linejoin="round"/>
<path d="M32.8486 10.7026C33.8732 11.1374 35.8603 11.603 36.4191 11.7273C36.9779 11.8515 37.8783 11.2925 38.313 11.0131C39.0894 10.5164 40.0827 10.92 40.5486 11.4479C40.8589 11.7893 40.9833 12.0067 40.9833 12.0998C40.9833 12.2239 40.6108 12.0998 40.6108 12.0998C40.3934 12.0067 40.1449 11.9757 39.9588 11.8513C39.7104 11.7273 39.4619 11.541 39.0895 11.5719C37.537 11.7584 37.2265 12.2861 35.8915 11.9756C34.5566 11.6651 34.215 11.3857 32.7869 11.4787" fill="#8AC640"/>
<path d="M28.0361 39.7013C27.9741 39.6393 28.0982 39.5773 28.0361 39.5773C27.6326 39.5773 27.0737 39.2668 26.763 38.832C25.4281 36.9071 23.4719 35.6342 19.9325 35.7273C14.6233 35.8514 12.512 33.6782 12.1085 29.5178C11.8911 27.2514 11.2701 25.0469 9.99718 23.8049L9.25195 24.2708C10.6801 25.5126 11.1459 27.5308 11.4564 30.294C11.9532 34.4544 15.3063 36.3794 19.2184 36.4415C23.2857 36.5035 24.7449 37.3419 26.2661 39.3911C26.7629 40.0431 27.3218 40.2604 27.7564 40.3536L28.0361 39.7013Z" fill="#010101"/>
<path opacity="0.4" d="M42.4426 19.7377C42.5357 20.2033 42.784 21.1037 43.2808 21.5383C43.4983 21.7557 43.5293 21.8177 43.343 21.8177C43.1566 21.8177 41.7905 21.7557 41.7905 21.7557L41.418 21.1037L42.4426 19.7377Z" fill="#010101"/>
</svg>
