<svg width="54" height="54" viewBox="0 0 54 54" fill="none" xmlns="http://www.w3.org/2000/svg">
<g clip-path="url(#clip0_22_534)">
<path d="M0.000244141 0.000183105H53.359V53.3589H0.000244141V0.000183105Z" fill="#F0DB4F"/>
<path d="M48.9916 40.6328C48.6011 38.1982 47.0135 36.1541 42.3116 34.247C40.6784 33.4963 38.8575 32.9587 38.3148 31.7211C38.1221 31.0008 38.0967 30.5951 38.2184 30.1588C38.5684 28.7437 40.2574 28.3025 41.5965 28.7082C42.4587 28.9973 43.2753 29.6618 43.7673 30.7219C46.0701 29.2307 46.065 29.2408 47.6729 28.2163C47.0845 27.3033 46.77 26.8823 46.3846 26.4918C44.9999 24.9448 43.113 24.1484 40.0951 24.2093C39.5727 24.2752 39.0452 24.3462 38.5228 24.4122C37.0164 24.7926 35.5809 25.5838 34.739 26.6439C32.213 29.5097 32.9333 34.5259 36.007 36.5904C39.035 38.8627 43.4833 39.38 44.0514 41.5052C44.6042 44.1072 42.1392 44.9492 39.6894 44.65C37.8837 44.2746 36.8794 43.3566 35.794 41.6878C33.7956 42.8443 33.7956 42.8443 31.7414 44.0261C32.2283 45.0912 32.7405 45.5731 33.5572 46.4962C37.4222 50.417 47.0947 50.2242 48.8294 44.2898C48.9003 44.0869 49.367 42.7276 48.9916 40.6328ZM29.0075 24.5237H24.0165C24.0165 28.835 23.9963 33.1159 23.9963 37.4272C23.9963 40.1712 24.1383 42.687 23.6919 43.458C22.9615 44.9745 21.0696 44.7869 20.2074 44.4926C19.3299 44.0615 18.8836 43.4478 18.3662 42.5805C18.2242 42.3319 18.1177 42.1392 18.0821 42.124C16.7279 42.9507 15.3787 43.7825 14.0244 44.6093C14.6991 45.994 15.6931 47.1961 16.9662 47.9772C18.8683 49.1184 21.4246 49.4684 24.0977 48.8546C25.8374 48.3474 27.3387 47.2976 28.1249 45.6998C29.2611 43.605 29.0176 41.069 29.0075 38.2641C29.0328 33.689 29.0075 29.114 29.0075 24.5237Z" fill="#323330"/>
</g>
<defs>
<clipPath id="clip0_22_534">
<rect width="53.3587" height="53.3587" fill="white"/>
</clipPath>
</defs>
</svg>
