<svg width="53" height="53" viewBox="0 0 53 53" fill="none" xmlns="http://www.w3.org/2000/svg">
<g clip-path="url(#clip0_22_527)">
<path d="M24.8417 0.18279C24.7281 0.193113 24.3668 0.229244 24.0417 0.255052C16.542 0.931209 9.51717 4.97783 5.06795 11.1974C2.59043 14.6557 1.00584 18.5784 0.407107 22.7334C0.195485 24.1838 0.169678 24.6122 0.169678 26.5787C0.169678 28.5453 0.195485 28.9737 0.407107 30.4241C1.84201 40.3393 8.89779 48.67 18.4672 51.7566C20.1808 52.3089 21.9874 52.6856 24.0417 52.9128C24.8417 53.0005 28.2999 53.0005 29.0999 52.9128C32.6459 52.5205 35.6499 51.643 38.6126 50.1307C39.0668 49.8984 39.1545 49.8365 39.0926 49.7849C39.0513 49.7539 37.1157 47.1577 34.7931 44.0195L30.571 38.316L25.2804 30.486C22.3693 26.1813 19.9744 22.6612 19.9537 22.6612C19.9331 22.656 19.9124 26.1349 19.9021 30.3828C19.8866 37.8205 19.8815 38.1199 19.7886 38.2954C19.6544 38.5483 19.5511 38.6515 19.3344 38.7651C19.1692 38.8476 19.0247 38.8631 18.2453 38.8631H17.3523L17.1149 38.7134C16.9601 38.6154 16.8465 38.4863 16.7691 38.3367L16.6607 38.1044L16.671 27.7556L16.6865 17.4016L16.8465 17.2003C16.9291 17.0919 17.1046 16.9525 17.2285 16.8854C17.4401 16.7822 17.5227 16.7719 18.4156 16.7719C19.4686 16.7719 19.644 16.8132 19.9176 17.1125C19.995 17.1951 22.8597 21.5101 26.2869 26.7078C29.7141 31.9054 34.4008 39.0025 36.7028 42.4865L40.8837 48.8197L41.0953 48.6803C42.9689 47.4622 44.9509 45.7279 46.52 43.9214C49.8595 40.0864 52.0119 35.4101 52.7345 30.4241C52.9461 28.9737 52.9719 28.5453 52.9719 26.5787C52.9719 24.6122 52.9461 24.1838 52.7345 22.7334C51.2996 12.8182 44.2438 4.48749 34.6744 1.40091C32.9865 0.853786 31.1903 0.476996 29.1774 0.24989C28.6818 0.198275 25.2701 0.141498 24.8417 0.18279ZM35.6499 16.1525C35.8976 16.2764 36.0989 16.5138 36.1712 16.7616C36.2125 16.8958 36.2228 19.7656 36.2125 26.2329L36.197 35.5133L34.5608 33.0048L32.9194 30.4963V23.7502C32.9194 19.3888 32.9401 16.937 32.9711 16.8183C33.0536 16.5293 33.2343 16.3022 33.4821 16.168C33.6937 16.0596 33.7711 16.0493 34.5815 16.0493C35.3454 16.0493 35.4796 16.0596 35.6499 16.1525Z" fill="#5151EC"/>
<path d="M40.6254 48.9328C40.4447 49.0463 40.3879 49.1238 40.5479 49.036C40.6615 48.9689 40.8473 48.8296 40.8163 48.8244C40.8009 48.8244 40.7131 48.876 40.6254 48.9328ZM40.2692 49.1651C40.1763 49.2373 40.1763 49.2425 40.2899 49.1857C40.3518 49.1547 40.4034 49.1186 40.4034 49.1083C40.4034 49.067 40.3776 49.0773 40.2692 49.1651ZM40.0111 49.3199C39.9182 49.3922 39.9182 49.3973 40.0318 49.3406C40.0937 49.3096 40.1453 49.2735 40.1453 49.2631C40.1453 49.2218 40.1195 49.2322 40.0111 49.3199ZM39.7531 49.4748C39.6602 49.547 39.6602 49.5522 39.7737 49.4954C39.8357 49.4644 39.8873 49.4283 39.8873 49.418C39.8873 49.3767 39.8615 49.387 39.7531 49.4748ZM39.3608 49.6812C39.1647 49.7844 39.175 49.8257 39.3711 49.7277C39.4589 49.6812 39.526 49.6348 39.526 49.6244C39.526 49.5883 39.5208 49.5935 39.3608 49.6812Z" fill="#5151EC"/>
</g>
<defs>
<clipPath id="clip0_22_527">
<rect width="52.859" height="52.859" fill="white" transform="translate(0.141113 0.140991)"/>
</clipPath>
</defs>
</svg>
