<svg width="60" height="69" viewBox="0 0 60 69" fill="none" xmlns="http://www.w3.org/2000/svg">
<g clip-path="url(#clip0_22_530)">
<path d="M60 34.6855C60 30.7656 55.0911 27.0507 47.5649 24.747C49.3017 17.0761 48.5298 10.9731 45.1285 9.01922C44.3445 8.56089 43.4279 8.34379 42.4268 8.34379V11.0334C42.9816 11.0334 43.4279 11.142 43.8018 11.347C45.4421 12.2878 46.1537 15.87 45.5989 20.4774C45.4662 21.6111 45.2491 22.8052 44.9838 24.0234C42.6198 23.4444 40.0387 22.9982 37.3249 22.7087C35.6966 20.4774 34.0081 18.4511 32.3074 16.6781C36.2394 13.0235 39.9301 11.0214 42.4389 11.0214V8.33173C39.122 8.33173 34.78 10.6957 30.3897 14.7965C25.9994 10.7198 21.6574 8.37997 18.3405 8.37997V11.0696C20.8372 11.0696 24.54 13.0597 28.472 16.6902C26.7834 18.4632 25.0948 20.4774 23.4907 22.7087C20.7648 22.9982 18.1837 23.4444 15.8197 24.0354C15.5423 22.8293 15.3373 21.6594 15.1925 20.5377C14.6257 15.9303 15.3252 12.3481 16.9535 11.3953C17.3153 11.1782 17.7857 11.0817 18.3405 11.0817V8.39203C17.3274 8.39203 16.4107 8.60913 15.6147 9.06746C12.2255 11.0214 11.4656 17.1123 13.2145 24.7591C5.71243 27.0749 0.827637 30.7777 0.827637 34.6855C0.827637 38.6054 5.73655 42.3202 13.2628 44.6239C11.5259 52.2949 12.2979 58.3978 15.6991 60.3518C16.4831 60.8101 17.3998 61.0272 18.4129 61.0272C21.7297 61.0272 26.0718 58.6632 30.4621 54.5624C34.8523 58.6391 39.1944 60.979 42.5112 60.979C43.5244 60.979 44.441 60.7618 45.2371 60.3035C48.6263 58.3496 49.3861 52.2587 47.6372 44.6119C55.1152 42.3082 60 38.5933 60 34.6855ZM44.2963 26.6407C43.85 28.1966 43.2952 29.8007 42.668 31.4048C42.1735 30.4399 41.6549 29.475 41.088 28.5101C40.5332 27.5452 39.9422 26.6045 39.3512 25.6878C41.0639 25.9411 42.7163 26.2547 44.2963 26.6407ZM38.7722 39.4859C37.8315 41.1141 36.8666 42.658 35.8655 44.0932C34.0684 44.25 32.2471 44.3345 30.4138 44.3345C28.5926 44.3345 26.7713 44.25 24.9863 44.1053C23.9852 42.67 23.0082 41.1382 22.0674 39.522C21.1508 37.942 20.3186 36.3379 19.5587 34.7217C20.3065 33.1055 21.1508 31.4893 22.0554 29.9092C22.9962 28.281 23.9611 26.7371 24.9621 25.3019C26.7593 25.1451 28.5805 25.0606 30.4138 25.0606C32.2351 25.0606 34.0563 25.1451 35.8414 25.2898C36.8424 26.7251 37.8194 28.2569 38.7602 29.8731C39.6768 31.4531 40.5091 33.0572 41.2689 34.6734C40.5091 36.2896 39.6768 37.9058 38.7722 39.4859ZM42.668 37.9179C43.3193 39.5341 43.8741 41.1503 44.3325 42.7183C42.7524 43.1042 41.088 43.4299 39.3632 43.6832C39.9542 42.7544 40.5452 41.8016 41.1001 40.8246C41.6549 39.8598 42.1735 38.8828 42.668 37.9179ZM30.4379 50.7872C29.3162 49.6293 28.1945 48.3388 27.0849 46.9276C28.1704 46.9759 29.2801 47.0121 30.4018 47.0121C31.5355 47.0121 32.6572 46.9879 33.7548 46.9276C32.6693 48.3388 31.5476 49.6293 30.4379 50.7872ZM21.4644 43.6832C19.7517 43.4299 18.0993 43.1163 16.5193 42.7303C16.9655 41.1744 17.5204 39.5703 18.1475 37.9661C18.6421 38.931 19.1607 39.8959 19.7276 40.8608C20.2944 41.8257 20.8734 42.7665 21.4644 43.6832ZM30.3776 18.5838C31.4993 19.7416 32.621 21.0322 33.7306 22.4434C32.6451 22.3951 31.5355 22.3589 30.4138 22.3589C29.2801 22.3589 28.1584 22.383 27.0608 22.4434C28.1463 21.0322 29.268 19.7416 30.3776 18.5838ZM21.4523 25.6878C20.8613 26.6165 20.2703 27.5694 19.7155 28.5463C19.1607 29.5112 18.6421 30.4761 18.1475 31.441C17.4962 29.8248 16.9414 28.2086 16.4831 26.6407C18.0631 26.2668 19.7276 25.9411 21.4523 25.6878ZM10.5369 40.7885C6.26725 38.9672 3.50523 36.5791 3.50523 34.6855C3.50523 32.7919 6.26725 30.3917 10.5369 28.5825C11.5742 28.1362 12.7079 27.7382 13.8779 27.3643C14.5654 29.7283 15.47 32.1888 16.5917 34.7096C15.482 37.2183 14.5895 39.6668 13.9141 42.0187C12.72 41.6448 11.5862 41.2347 10.5369 40.7885ZM17.0259 58.024C15.3855 57.0832 14.6739 53.501 15.2287 48.8936C15.3614 47.7599 15.5785 46.5658 15.8439 45.3476C18.2079 45.9265 20.789 46.3728 23.5027 46.6623C25.131 48.8936 26.8196 50.9199 28.5202 52.6929C24.5882 56.3474 20.8975 58.3496 18.3888 58.3496C17.846 58.3375 17.3877 58.229 17.0259 58.024ZM45.6351 48.8333C46.202 53.4407 45.5024 57.0229 43.8741 57.9757C43.5123 58.1928 43.0419 58.2893 42.4871 58.2893C39.9904 58.2893 36.2876 56.2992 32.3557 52.6688C34.0442 50.8958 35.7328 48.8815 37.337 46.6502C40.0628 46.3608 42.6439 45.9145 45.0079 45.3235C45.2853 46.5417 45.5024 47.7116 45.6351 48.8333ZM50.2786 40.7885C49.2414 41.2347 48.1076 41.6328 46.9377 42.0067C46.2502 39.6427 45.3456 37.1822 44.2239 34.6614C45.3335 32.1526 46.2261 29.7042 46.9015 27.3523C48.0956 27.7262 49.2293 28.1362 50.2907 28.5825C54.5604 30.4038 57.3224 32.7919 57.3224 34.6855C57.3103 36.5791 54.5483 38.9793 50.2786 40.7885Z" fill="#61DAFB"/>
<path d="M30.4016 40.1974C33.4458 40.1974 35.9136 37.7296 35.9136 34.6854C35.9136 31.6412 33.4458 29.1734 30.4016 29.1734C27.3574 29.1734 24.8896 31.6412 24.8896 34.6854C24.8896 37.7296 27.3574 40.1974 30.4016 40.1974Z" fill="#61DAFB"/>
</g>
<defs>
<clipPath id="clip0_22_530">
<rect width="59.1723" height="67.4252" fill="white" transform="translate(0.827637 0.966797)"/>
</clipPath>
</defs>
</svg>
