<svg width="54" height="12" viewBox="0 0 54 12" fill="none" xmlns="http://www.w3.org/2000/svg">
<g clip-path="url(#clip0_61_97)">
<path d="M39.7816 4.5825V11.3376H37.6055V3.52466L39.7816 4.5825Z" fill="#F37368"/>
<path d="M8.98315 10.0833L10.6153 11.5039L17.4912 7.92232L16.781 6.21466L8.98315 10.0833ZM37.6054 5.73107L43.1364 2.85979L42.1994 1.2428L37.6054 3.52472V5.73107Z" fill="#F7A199"/>
<path d="M22.04 4.05359V11.3376H19.9545V0.955627L22.04 4.05359ZM8.98315 10.0833L10.6153 11.5038L13.7586 3.64557L12.7461 0.955627L8.98315 10.0833Z" fill="#F37368"/>
<path d="M12.7461 0.955627H14.892L18.8665 11.3376H16.6601L12.7461 0.955627ZM22.3573 0.955627L26.9363 8.04317V11.3376L19.9545 0.955627H22.3573ZM30.8654 0.955627H33.0264V11.3376H30.8654V0.955627ZM37.6054 2.85974H34.2807V0.955627H42.0332L43.1364 2.85974H39.7815H37.6054Z" fill="#F04939"/>
<path d="M49.5287 7.39331V11.3376H47.3828V7.39331" fill="#F7A199"/>
<path d="M51.0097 0.955627L47.3828 7.39335H49.5287L53.2916 0.955627H51.0097Z" fill="#F04939"/>
<path d="M47.3828 7.39335L43.635 0.955627H45.9925L48.5162 5.36834L47.3828 7.39335Z" fill="#F37368"/>
<path d="M0.928456 2.16455C0.928456 3.60019 1.82007 4.46158 3.60329 4.91494L5.49229 5.35319C7.18484 5.7461 8.21246 6.71327 8.21246 8.28493C8.22757 8.96497 8.00089 9.6299 7.59286 10.1739C7.59286 8.60228 6.77681 7.756 4.82736 7.24219L2.96858 6.81906C1.47249 6.48659 0.323975 5.68566 0.323975 3.978C0.323975 3.32818 0.535543 2.67836 0.928456 2.16455Z" fill="#F04939"/>
<path d="M26.9365 7.51419V0.955566H29.022V11.3375H26.9365V7.51419Z" fill="#F37368"/>
<path d="M6.42955 7.89202C7.23049 8.40583 7.59318 9.13121 7.59318 10.1739C6.91313 11.0353 5.74951 11.5038 4.37431 11.5038C2.06217 11.5038 0.41496 10.3553 0.0673828 8.37561H2.28885C2.57598 9.28233 3.33158 9.70547 4.3592 9.70547C5.58328 9.72058 6.41444 9.05565 6.42955 7.89202ZM2.0924 4.29536C1.33679 3.842 0.898545 3.02595 0.928769 2.14945C1.57859 1.30318 2.69688 0.789368 4.05696 0.789368C6.42955 0.789368 7.78963 2.04367 8.13721 3.79666H5.9913C5.74951 3.10151 5.16014 2.55748 4.08718 2.55748C2.92356 2.57259 2.13773 3.23752 2.0924 4.29536Z" fill="#F37368"/>
</g>
<defs>
<clipPath id="clip0_61_97">
<rect width="53.3587" height="10.7144" fill="white" transform="translate(0 0.789551)"/>
</clipPath>
</defs>
</svg>
