<svg width="57" height="44" viewBox="0 0 57 44" fill="none" xmlns="http://www.w3.org/2000/svg">
<g clip-path="url(#clip0_61_109)">
<path d="M49.1012 24.9633C47.1209 24.9745 45.4062 25.45 43.968 26.1582C43.437 25.1072 42.906 24.1889 42.8176 23.5031C42.7181 22.7066 42.5964 22.2197 42.7181 21.2684C42.8396 20.3169 43.3928 18.9673 43.3928 18.8567C43.3816 18.7571 43.271 18.2703 42.1316 18.2593C40.9923 18.2482 40.0076 18.4805 39.897 18.7792C39.7863 19.0779 39.5651 19.7638 39.4213 20.4718C39.2221 21.5117 37.1423 25.1956 35.9586 27.1316C35.5714 26.3793 35.2395 25.7156 35.1731 25.1844C35.0736 24.388 34.9518 23.9012 35.0736 22.9499C35.1953 21.9984 35.7484 20.6488 35.7484 20.5382C35.7374 20.4386 35.6267 19.9519 34.4874 19.9408C33.3478 19.9297 32.3633 20.1621 32.2527 20.4608C32.1421 20.7594 32.0204 21.4675 31.777 22.1534C31.5446 22.8392 28.7789 28.9901 28.0598 30.5942C27.6948 31.4129 27.3741 32.0656 27.1416 32.5081C26.9093 32.9506 27.1306 32.5413 27.1084 32.5855C26.9093 32.9616 26.7987 33.1718 26.7987 33.1718V33.183C26.6438 33.4596 26.4779 33.725 26.4003 33.725C26.345 33.725 26.2344 32.9838 26.4224 31.9661C26.8318 29.8309 27.8274 26.5011 27.8165 26.3794C27.8165 26.3241 28.0044 25.7377 27.1747 25.4391C26.3671 25.1404 26.0796 25.6382 26.0131 25.6382C25.9467 25.6382 25.8914 25.8152 25.8914 25.8152C25.8914 25.8152 26.7875 22.0651 24.1767 22.0651C22.5394 22.0651 20.2826 23.8462 19.1653 25.4724C18.4573 25.8596 16.9527 26.6781 15.3597 27.5522C14.7513 27.8841 14.1207 28.2381 13.5233 28.5589L13.4017 28.4259C10.2378 25.0518 4.38558 22.6622 4.62896 18.1265C4.71746 16.4782 5.29272 12.1305 15.8688 6.86465C24.5309 2.55018 31.4673 3.7339 32.673 6.36683C34.3877 10.1282 28.967 17.1198 19.962 18.1265C16.5326 18.5137 14.7292 17.1862 14.2758 16.6884C13.8001 16.1684 13.7337 16.1463 13.5567 16.2459C13.2691 16.4007 13.4461 16.8654 13.5567 17.1419C13.8222 17.8389 14.9285 19.0779 16.8091 19.6974C18.4574 20.2395 22.4843 20.5382 27.3519 18.6575C32.8059 16.5445 37.065 10.6813 35.8149 5.7805C34.5427 0.79121 26.2678 -0.846075 18.4464 1.93067C13.7889 3.59008 8.7443 6.17876 5.11572 9.57502C0.801252 13.6019 0.115363 17.1198 0.402994 18.5801C1.40981 23.7906 8.58942 27.1869 11.4657 29.6981C11.3219 29.7755 11.1892 29.8529 11.0675 29.9194C9.62932 30.6273 4.15326 33.4927 2.78148 36.5237C1.2327 39.9532 3.02486 42.4203 4.21964 42.7522C7.91459 43.781 11.698 41.9335 13.7447 38.8913C15.7801 35.849 15.5368 31.8996 14.5965 30.0964L14.5632 30.03L15.6916 29.3663C16.4218 28.9348 17.1409 28.5365 17.7714 28.1935C17.4175 29.156 17.1629 30.2954 17.0303 31.9548C16.8754 33.902 17.6719 36.4242 18.7229 37.4198C19.1875 37.8512 19.7407 37.8623 20.0836 37.8623C21.3005 37.8623 21.8536 36.8555 22.4621 35.6498C23.2144 34.1784 23.8781 32.4748 23.8781 32.4748C23.8781 32.4748 23.0484 37.0879 25.3163 37.0879C26.146 37.0879 26.9757 36.0148 27.3518 35.4617V35.4728C27.3518 35.4728 27.3739 35.4396 27.4182 35.3621C27.4646 35.2935 27.5089 35.2235 27.5509 35.1521V35.1299C27.8828 34.5547 28.624 33.2382 29.7303 31.0589C31.1573 28.2489 32.5292 24.731 32.5292 24.731C32.5292 24.731 32.6619 25.5939 33.0713 27.0099C33.3145 27.8508 33.8455 28.7689 34.2549 29.665C33.923 30.1296 33.7238 30.3952 33.7238 30.3952L33.7349 30.4063C33.4695 30.7603 33.1707 31.1365 32.8611 31.5125C31.7327 32.8622 30.383 34.4 30.206 34.8425C29.9958 35.3624 30.0401 35.7496 30.4494 36.0594C30.7481 36.2807 31.2791 36.3248 31.8433 36.2807C32.8611 36.2142 33.5691 35.9599 33.9231 35.8049C34.4762 35.6058 35.1068 35.3071 35.7152 34.8645C36.8215 34.046 37.4963 32.8844 37.43 31.3356C37.3968 30.4838 37.1202 29.643 36.7773 28.8465C36.8768 28.7027 36.9765 28.5588 37.076 28.404C38.8239 25.8484 40.1735 23.0386 40.1735 23.0386C40.1735 23.0386 40.3063 23.9015 40.7156 25.3175C40.9257 26.0366 41.3462 26.8222 41.7223 27.5965C40.085 28.9351 39.0562 30.4839 38.7022 31.5017C38.0495 33.3824 38.5584 34.2342 39.5208 34.4333C39.9522 34.5218 40.5718 34.3227 41.0363 34.1236C41.6116 33.9355 42.3085 33.6146 42.9503 33.139C44.0565 32.3203 45.1186 31.1809 45.0633 29.6432C45.0301 28.9351 44.842 28.2382 44.5876 27.5744C45.9815 26.9992 47.7846 26.6673 50.0747 26.9438C54.9976 27.5191 55.9711 30.5946 55.7832 31.8778C55.5951 33.1612 54.5663 33.8691 54.2232 34.0904C53.8803 34.3006 53.7696 34.3781 53.8028 34.5329C53.8471 34.7653 54.0019 34.7541 54.3006 34.71C54.71 34.6435 56.8893 33.659 56.9778 31.2917C57.1106 28.249 54.2232 24.9302 49.1012 24.9633ZM11.1338 37.7629C9.50762 39.544 7.21764 40.2188 6.24412 39.6435C5.19316 39.0351 5.60237 36.4132 7.60483 34.5215C8.82174 33.371 10.4037 32.3089 11.4436 31.6562C11.6759 31.5124 12.0299 31.3023 12.4503 31.0478C12.5167 31.0037 12.5609 30.9814 12.5609 30.9814C12.6384 30.9372 12.7269 30.8819 12.8154 30.8265C13.5566 33.5258 12.8486 35.8933 11.1338 37.7629ZM23.0263 29.676C22.4621 31.0589 21.2673 34.61 20.5482 34.4109C19.9286 34.2449 19.5526 31.5567 20.4264 28.9016C20.8689 27.5629 21.8093 25.97 22.3624 25.3504C23.2586 24.3547 24.232 24.0228 24.4755 24.4322C24.7631 24.9633 23.3803 28.8131 23.0263 29.676ZM32.8389 34.3666C32.5956 34.4884 32.3743 34.5768 32.2747 34.5105C32.1973 34.4663 32.3742 34.3003 32.3742 34.3003C32.3742 34.3003 33.6021 32.9839 34.0889 32.3754C34.3655 32.0215 34.6974 31.6122 35.0514 31.1475V31.2802C35.0515 32.8731 33.5248 33.9352 32.8389 34.3666ZM40.4057 32.6408C40.2287 32.5081 40.251 32.0988 40.8482 30.8155C41.0807 30.3066 41.6116 29.4548 42.5298 28.6472C42.6404 28.9791 42.7069 29.2998 42.6957 29.5986C42.6848 31.5899 41.2687 32.3311 40.4057 32.6408Z" fill="#CF649A"/>
</g>
<defs>
<clipPath id="clip0_61_109">
<rect width="56.6412" height="42.4809" fill="white" transform="translate(0.358887 0.558594)"/>
</clipPath>
</defs>
</svg>
