<svg width="57" height="52" viewBox="0 0 57 52" fill="none" xmlns="http://www.w3.org/2000/svg">
<g clip-path="url(#clip0_61_25)">
<path d="M56.2057 10.9817C56.2057 10.9817 37.6395 -2.68038 23.2768 0.472253L22.226 0.822545C20.1242 1.52313 18.3727 2.57401 17.3217 3.97518L16.6211 5.02606L11.3665 14.1341L20.4745 15.8856C24.3277 18.3378 29.232 19.3887 33.7861 18.3378L49.9002 21.4905L56.2057 10.9817Z" fill="#76B3E1"/>
<path opacity="0.3" d="M56.2057 10.9817C56.2057 10.9817 37.6395 -2.68038 23.2768 0.472253L22.226 0.822545C20.1242 1.52313 18.3727 2.57401 17.3217 3.97518L16.6211 5.02606L11.3665 14.1341L20.4745 15.8856C24.3277 18.3378 29.232 19.3887 33.7861 18.3378L49.9002 21.4905L56.2057 10.9817Z" fill="url(#paint0_linear_61_25)"/>
<path d="M17.3209 10.9814L15.9198 11.3317C9.96458 13.0832 8.2129 18.6881 11.3657 23.5924C14.8687 28.1464 22.2253 30.5985 28.1805 28.847L49.8995 21.4906C49.8995 21.4906 31.3333 7.82855 17.3209 10.9814Z" fill="#518AC8"/>
<path opacity="0.3" d="M17.3209 10.9814L15.9198 11.3317C9.96458 13.0832 8.2129 18.6881 11.3657 23.5924C14.8687 28.1464 22.2253 30.5985 28.1805 28.847L49.8995 21.4906C49.8995 21.4906 31.3333 7.82855 17.3209 10.9814Z" fill="url(#paint1_linear_61_25)"/>
<path d="M46.0462 26.7452C42.0341 21.7329 35.3836 19.6545 29.2315 21.4906L7.51242 28.4966L0.506348 40.7573L39.7407 47.4131L46.7467 34.8021C48.1479 32.3501 47.7976 29.5477 46.0462 26.7452Z" fill="url(#paint2_linear_61_25)"/>
<path d="M39.0401 39.006C35.028 33.9938 28.3773 31.9153 22.2254 33.7514L0.506348 40.7575C0.506348 40.7575 19.0725 54.7699 33.4352 51.2667L34.4861 50.9164C40.4413 49.165 42.5435 43.5601 39.0401 39.006Z" fill="url(#paint3_linear_61_25)"/>
</g>
<defs>
<linearGradient id="paint0_linear_61_25" x1="-251.347" y1="822.443" x2="3468.15" y2="2629.96" gradientUnits="userSpaceOnUse">
<stop offset="0.1" stop-color="#76B3E1"/>
<stop offset="0.3" stop-color="#DCF2FD"/>
<stop offset="1" stop-color="#76B3E1"/>
</linearGradient>
<linearGradient id="paint1_linear_61_25" x1="2294.1" y1="737.254" x2="2075.05" y2="1466.75" gradientUnits="userSpaceOnUse">
<stop stop-color="#76B3E1"/>
<stop offset="0.5" stop-color="#4377BB"/>
<stop offset="1" stop-color="#1F3B77"/>
</linearGradient>
<linearGradient id="paint2_linear_61_25" x1="504.954" y1="938.75" x2="3965.06" y2="3291.25" gradientUnits="userSpaceOnUse">
<stop stop-color="#315AA9"/>
<stop offset="0.5" stop-color="#518AC8"/>
<stop offset="1" stop-color="#315AA9"/>
</linearGradient>
<linearGradient id="paint3_linear_61_25" x1="2494.71" y1="587.324" x2="2012.31" y2="2356.39" gradientUnits="userSpaceOnUse">
<stop stop-color="#4377BB"/>
<stop offset="0.5" stop-color="#1A336B"/>
<stop offset="1" stop-color="#1A336B"/>
</linearGradient>
<clipPath id="clip0_61_25">
<rect width="56.16" height="52" fill="white" transform="translate(0.275879)"/>
</clipPath>
</defs>
</svg>
