<svg width="59" height="36" viewBox="0 0 59 36" fill="none" xmlns="http://www.w3.org/2000/svg">
<g clip-path="url(#clip0_61_122)">
<path d="M29.6794 0.416321C21.8634 0.416321 16.9787 4.32321 15.0245 12.1363C17.9558 8.22937 21.3752 6.76484 25.2828 7.74119C27.5126 8.29827 29.1062 9.916 30.8705 11.706C33.7439 14.6219 37.0695 17.9966 44.3343 17.9966C52.1495 17.9966 57.035 14.0897 58.9884 6.27593C56.0579 10.1828 52.6384 11.6481 48.7301 10.6717C46.501 10.1146 44.9075 8.49692 43.1431 6.70693C40.2698 3.79105 36.9434 0.416321 29.6794 0.416321ZM15.0245 17.9966C7.20926 17.9966 2.32381 21.9035 0.370361 29.7173C3.3009 25.8104 6.72035 24.3451 10.6287 25.3222C12.8578 25.88 14.4513 27.497 16.2156 29.2863C19.089 32.2021 22.4153 35.5776 29.6794 35.5776C37.4954 35.5776 42.3801 31.6707 44.3343 23.8569C41.403 27.7638 37.9835 29.2291 34.0759 28.252C31.8461 27.6957 30.2526 26.0772 28.4883 24.2879C25.6149 21.3721 22.2893 17.9966 15.0245 17.9966Z" fill="#06B6D4"/>
</g>
<defs>
<clipPath id="clip0_61_122">
<rect width="58.6413" height="35.1613" fill="white" transform="translate(0.358887 0.41626)"/>
</clipPath>
</defs>
</svg>
