<svg width="54" height="53" viewBox="0 0 54 53" fill="none" xmlns="http://www.w3.org/2000/svg">
<g clip-path="url(#clip0_416_12)">
<path d="M48.3242 0H5.67578C2.81728 0 0.5 2.31728 0.5 5.17578V47.8242C0.5 50.6827 2.81728 53 5.67578 53H48.3242C51.1827 53 53.5 50.6827 53.5 47.8242V5.17578C53.5 2.31728 51.1827 0 48.3242 0Z" fill="#3178C6"/>
<path d="M48.3242 0H5.67578C2.81728 0 0.5 2.31728 0.5 5.17578V47.8242C0.5 50.6827 2.81728 53 5.67578 53H48.3242C51.1827 53 53.5 50.6827 53.5 47.8242V5.17578C53.5 2.31728 51.1827 0 48.3242 0Z" fill="#3178C6"/>
<path fill-rule="evenodd" clip-rule="evenodd" d="M33.3081 42.1748V47.3568C34.1505 47.7887 35.1469 48.1125 36.2972 48.3284C37.4474 48.5444 38.6597 48.6523 39.9342 48.6523C41.1763 48.6523 42.3561 48.5336 43.474 48.296C44.5919 48.0586 45.572 47.6672 46.4145 47.122C47.2569 46.5769 47.9238 45.8643 48.4152 44.9844C48.9066 44.1045 49.1523 43.0169 49.1523 41.7214C49.1523 40.7821 49.012 39.9589 48.7311 39.2518C48.4503 38.5447 48.0453 37.9158 47.5161 37.3652C46.9869 36.8146 46.3523 36.3206 45.6125 35.8834C44.8727 35.4461 44.0384 35.0332 43.1095 34.6446C42.4291 34.3639 41.8189 34.0913 41.2788 33.8268C40.7388 33.5622 40.2798 33.2924 39.9018 33.0171C39.5237 32.7418 39.2321 32.4503 39.027 32.1426C38.8218 31.8349 38.7191 31.4868 38.7191 31.0981C38.7191 30.7419 38.8109 30.4207 38.9946 30.1345C39.1782 29.8484 39.4374 29.6029 39.7722 29.3977C40.107 29.1926 40.5174 29.0333 41.0034 28.92C41.4895 28.8066 42.0294 28.75 42.6235 28.75C43.0555 28.75 43.5118 28.7824 43.9924 28.8471C44.473 28.9119 44.9563 29.0118 45.4424 29.1467C45.9285 29.2817 46.4009 29.4517 46.86 29.6568C47.319 29.862 47.7429 30.0994 48.1317 30.3694V25.5274C47.3433 25.2251 46.482 25.0011 45.5477 24.8553C44.6135 24.7096 43.5415 24.6367 42.3319 24.6367C41.1006 24.6367 39.9342 24.769 38.8326 25.0335C37.7309 25.298 36.7616 25.7109 35.9245 26.2723C35.0875 26.8337 34.426 27.5489 33.94 28.418C33.454 29.2871 33.2109 30.3261 33.2109 31.5353C33.2109 33.0791 33.6565 34.3963 34.5475 35.4867C35.4385 36.577 36.7912 37.5001 38.6058 38.2559C39.3186 38.5474 39.9828 38.8334 40.5984 39.1141C41.214 39.3948 41.746 39.6863 42.1941 39.9886C42.6424 40.2909 42.9961 40.6202 43.2554 40.9765C43.5146 41.3326 43.6442 41.7375 43.6442 42.191C43.6442 42.5257 43.5631 42.836 43.4011 43.1221C43.2391 43.4082 42.9934 43.6565 42.664 43.867C42.3346 44.0776 41.9242 44.2422 41.4328 44.3609C40.9413 44.4797 40.3662 44.539 39.7074 44.539C38.5841 44.539 37.4717 44.3421 36.37 43.948C35.2684 43.554 34.2477 42.9629 33.3081 42.1748ZM24.5964 29.4069H31.2441V25.1543H12.7148V29.4069H19.3301V48.3418H24.5964V29.4069Z" fill="white"/>
</g>
<defs>
<clipPath id="clip0_416_12">
<rect width="53" height="53" fill="white" transform="translate(0.5)"/>
</clipPath>
</defs>
</svg>
